HIERARCHY
ROOT Hips
{
  OFFSET -69.4423 88.0299 51.6846
  CHANNELS 6 Xposition Yposition Zposition Zrotation Xrotation Yrotation
  JOINT Spine
  {
    OFFSET 12.0259 -0.162853 1.93176e-005
    CHANNELS 3 Zrotation Xrotation Yrotation
    JOINT Spine1
    {
      OFFSET 15.3169 -0.0121909 0
      CHANNELS 3 Zrotation Xrotation Yrotation
      JOINT Spine2
      {
        OFFSET 15.3176 -0.0121922 0
        CHANNELS 3 Zrotation Xrotation Yrotation
        JOINT Neck
        {
          OFFSET 19.9142 1.56236 0
          CHANNELS 3 Zrotation Xrotation Yrotation
          JOINT Head
          {
            OFFSET 6.92646 0 0
            CHANNELS 3 Zrotation Xrotation Yrotation
            End Site
            {
              OFFSET 20.7666 0 0
            }
          }
          JOINT LeftShoulder
          {
            OFFSET -4.94072 -1.14703 8.14416
            CHANNELS 3 Zrotation Xrotation Yrotation
            JOINT LeftArm
            {
              OFFSET 14.108 0 -2.74767e-005
              CHANNELS 3 Zrotation Xrotation Yrotation
              JOINT LeftForeArm
              {
                OFFSET 28.5802 -0.0783412 -0.0284884
                CHANNELS 3 Zrotation Xrotation Yrotation
                JOINT LeftHand
                {
                  OFFSET 27.092 0 0
                  CHANNELS 3 Zrotation Xrotation Yrotation
                  End Site
                  {
                    OFFSET 9.55928 -0.186424 0.145352
                  }
                }
              }
            }
          }
          JOINT RightShoulder
          {
            OFFSET -7.15748 -1.33027 -6.24935
            CHANNELS 3 Zrotation Xrotation Yrotation
            JOINT RightArm
            {
              OFFSET 14.108 0 1.82997e-005
              CHANNELS 3 Zrotation Xrotation Yrotation
              JOINT RightForeArm
              {
                OFFSET 28.5802 -0.0707221 2.30684e-005
                CHANNELS 3 Zrotation Xrotation Yrotation
                JOINT RightHand
                {
                  OFFSET 27.092 0 -1.30073e-005
                  CHANNELS 3 Zrotation Xrotation Yrotation
                  End Site
                  {
                    OFFSET 9.55929 -0.186417 -0.145354
                  }
                }
              }
            }
          }
        }
      }
    }
  }
  JOINT LeftUpLeg
  {
    OFFSET 0.00499725 -0.534999 8.837
    CHANNELS 3 Zrotation Xrotation Yrotation
    JOINT LeftLeg
    {
      OFFSET 39.9035 -0.00124594 0.000252775
      CHANNELS 3 Zrotation Xrotation Yrotation
      JOINT LeftFoot
      {
        OFFSET 39.6689 0 0
        CHANNELS 3 Zrotation Xrotation Yrotation
        JOINT LeftToe
        {
          OFFSET 10.1624 13.6296 0
          CHANNELS 3 Zrotation Xrotation Yrotation
          End Site
          {
            OFFSET 8.38147 0 0
          }
        }
      }
    }
  }
  JOINT RightUpLeg
  {
    OFFSET 0.00499725 -0.535 -8.837
    CHANNELS 3 Zrotation Xrotation Yrotation
    JOINT RightLeg
    {
      OFFSET 39.9036 -0.000268477 0.000106433
      CHANNELS 3 Zrotation Xrotation Yrotation
      JOINT RightFoot
      {
        OFFSET 39.6689 1.17892e-005 0
        CHANNELS 3 Zrotation Xrotation Yrotation
        JOINT RightToe
        {
          OFFSET 10.1624 13.6296 0
          CHANNELS 3 Zrotation Xrotation Yrotation
          End Site
          {
            OFFSET 8.38147 0 0
          }
        }
      }
    }
  }
}
MOTION
Frames:	15
Frame Time:	0.0333333
58.8802 88.7051 -50.75 -70.2544 88.9552 159.026 1.22208 0.696577 0.646227 2.43656 1.40723 1.27773 2.43656 1.40722 1.27773 -16.1241 -3.95942 -13.4377 42.3856 -3.03999 17.1651 -166.731 -6.77991 -95.5821 -21.4073 6.60813 86.0295 -22.6199 2.3387 -14.5658 13.2523 -84.4286 15.6896 -166.515 -8.63942 72.6193 -18.821 -3.28638 -85.4918 -23.0033 -2.6997 14.2287 3.39732 83.7884 -3.2382 -21.0713 -1.62658 -176.113 -45.8578 0.756489 -0.552878 2.23178 4.65252 0.626527 90 -7.55382e-015 -0 -2.42478 -1.77274 -173.016 -25.1008 -0.747879 0.181803 7.06482 1.89341 -0.808576 90 -9.93923e-017 -1.78906e-015 
58.7596 88.7432 -49.9615 -88.0299 89.3032 176.786 1.19255 0.869698 0.608072 2.37621 1.7523 1.19829 2.37621 1.75229 1.19827 -15.9925 -3.94602 -13.2294 42.6915 -3.1613 16.8098 -166.849 -6.72349 -95.4095 -20.7979 7.31974 86.032 -22.5818 2.32766 -14.5134 12.4795 -84.2487 14.8422 -166.601 -8.50847 72.818 -18.5486 -2.82924 -85.5873 -23.2052 -2.74294 14.326 2.84963 82.2235 -2.65172 -22.4889 -1.33176 -176.052 -43.5435 0.750151 -0.680182 1.52071 3.63074 0.591892 90 -2.98177e-015 4.37326e-015 -1.75048 -1.56443 -172.951 -24.0891 -0.770611 0.191973 6.86726 1.69943 -0.803771 90 -9.88954e-015 1.39149e-015 
58.6439 88.7455 -49.0363 -94.9962 89.3334 -176.378 1.23178 0.939398 0.619324 2.45382 1.89231 1.21871 2.45382 1.89231 1.21869 -15.9539 -3.95896 -13.3689 42.6492 -3.2797 16.7266 -166.916 -6.79853 -95.535 -19.6067 7.71295 86.136 -22.2884 2.2897 -14.338 11.6453 -83.683 14.0598 -166.655 -8.52705 72.6955 -19.7381 -2.76571 -85.5563 -23.805 -2.87586 14.6525 3.3264 83.3257 -3.14498 -23.373 -1.19844 -175.877 -40.1475 0.747703 -0.844519 0.52881 2.33941 0.500621 90 3.08116e-015 3.37934e-015 -0.462084 -1.44954 -172.742 -22.6503 -0.777111 0.210081 6.76009 1.64524 -0.803855 90 -1.3418e-014 -8.54774e-015 
58.5776 88.7418 -48.0744 -107.124 89.1226 -164.244 1.26956 1.00461 0.581179 2.52953 2.02228 1.14037 2.52952 2.02228 1.14037 -16.0147 -3.99326 -13.5382 42.4441 -3.20312 17.0531 -166.886 -6.9417 -95.6488 -18.5951 8.05051 85.9775 -21.6359 2.18056 -13.9722 10.9285 -83.3375 13.2533 -166.625 -8.62478 72.57 -20.4739 -2.598 -85.6453 -24.7903 -3.09866 15.1784 3.808 84.2363 -3.65104 -24.0858 -1.38616 -175.937 -35.7511 0.742255 -1.0476 -0.241128 0.652716 0.315328 90 -9.91225e-015 -1.1104e-016 0.710446 -1.35445 -172.663 -21.2857 -0.789157 0.231986 6.68993 1.79074 -0.806345 90 6.95746e-015 -1.78906e-015 
58.5016 88.6773 -47.0078 -114.395 89.001 -157.152 1.39027 1.05223 0.592304 2.77036 2.11894 1.15934 2.77034 2.11894 1.15933 -16.2902 -4.0006 -13.4621 41.8121 -3.46576 16.8416 -166.594 -7.00356 -95.5118 -16.3839 7.73942 85.7929 -21.3466 2.15132 -13.8159 7.36364 -80.8227 9.72782 -166.328 -8.67211 72.6888 -22.1067 -2.17302 -85.366 -25.6756 -3.3052 15.6517 5.18128 85.7964 -5.0637 -24.6703 -1.48482 -175.684 -30.9157 0.720024 -1.25089 -1.59508 0.631389 0.292019 90 3.71479e-015 4.48508e-015 1.95616 -1.17943 -172.399 -19.9155 -0.801457 0.253202 6.68194 1.87514 -0.809047 90 -2.08724e-015 -1.07344e-014 
58.4725 88.6042 -45.8072 -127.638 89.0167 -143.903 1.4077 1.20584 0.547989 2.80475 2.42523 1.06667 2.80474 2.42522 1.06666 -16.3894 -4.10685 -13.4363 41.8417 -3.65903 16.9366 -166.501 -7.14299 -95.3919 -15.9392 7.81907 85.5676 -20.1869 1.9654 -13.184 8.40996 -81.2613 10.6956 -166.257 -8.79377 72.76 -22.9102 -2.14739 -85.3267 -26.674 -3.55366 16.1865 6.46985 86.4645 -6.36573 -25.0342 -1.97631 -175.665 -26.1346 0.687997 -1.42908 -2.86698 0.957673 0.332423 90 -3.46631e-015 1.88845e-015 3.13893 -1.08939 -172.398 -18.7209 -0.810433 0.271991 6.6927 1.83888 -0.810599 90 6.65929e-015 5.76476e-015 
58.4246 88.4177 -44.5385 -135.855 88.9081 -136.037 1.54494 1.25595 0.615949 3.07744 2.52848 1.19837 3.07743 2.52848 1.19837 -16.8196 -4.03691 -13.7385 41.4941 -3.54931 17.1697 -166.061 -7.25804 -95.5621 -14.5328 7.08666 85.3316 -19.0759 1.80431 -12.599 7.97593 -80.3428 10.1557 -165.84 -8.92709 72.4801 -23.8402 -1.34057 -84.5858 -27.1825 -3.6755 16.4448 6.89147 86.7794 -6.80385 -25.5714 -2.10705 -175.236 -22.2251 0.633233 -1.57614 -3.22016 1.38777 0.449885 90 9.75287e-016 -3.77691e-015 4.33157 -0.663113 -171.952 -17.5709 -0.822737 0.289624 6.70569 2.13596 -0.810951 90 -8.84592e-015 -1.82882e-014 
58.4225 88.3079 -43.1867 -151.807 88.8383 -120.273 1.52831 1.38601 0.624054 3.04279 2.78861 1.21159 3.04278 2.7886 1.21157 -16.729 -4.08452 -13.7025 41.1287 -3.60285 17.2313 -166.175 -7.3092 -95.534 -14.6159 7.63615 85.4151 -18.7886 1.75813 -12.4272 8.19863 -80.4055 10.3546 -165.938 -8.95036 72.5245 -24.2848 -1.17923 -84.4076 -27.7168 -3.79934 16.7141 6.64452 87.0369 -6.56171 -26.0279 -2.18806 -174.991 -19.2237 0.574322 -1.68402 -3.79155 0.701895 0.307314 90 4.61553e-015 1.59028e-015 5.5735 -0.428115 -171.797 -16.3882 -0.833446 0.304333 6.58833 2.05785 -0.805912 90 -5.96354e-015 -6.75868e-015 
58.4516 88.2642 -41.7034 -176.447 88.8367 -96.0831 1.52432 1.54188 0.674336 3.02729 3.10149 1.3084 3.02727 3.10148 1.30839 -16.6455 -4.13478 -13.67 41.044 -3.58884 17.3722 -166.321 -7.38492 -95.575 -15.1195 8.72354 85.87 -19.5374 1.86165 -12.8128 8.40468 -81.092 10.5363 -166.017 -8.96743 72.5921 -24.9256 -1.00142 -84.2921 -27.9953 -3.88368 16.8733 7.42266 87.0024 -7.32163 -26.2493 -2.31626 -174.511 -17.4848 0.520473 -1.75484 -3.84187 -0.948635 -0.0497382 90 1.01753e-014 1.39149e-015 7.10694 0.0150768 -171.519 -14.9843 -0.843237 0.315039 6.22264 1.61426 -0.804265 90 -3.57812e-015 5.96354e-016 
58.5816 88.1481 -40.1133 157.345 88.3178 -70.0373 1.51529 1.74223 0.684154 3.01176 3.50237 1.32538 3.01174 3.50236 1.32536 -16.7168 -4.19638 -13.6535 40.5429 -3.8574 17.2693 -166.263 -7.46023 -95.5324 -14.844 8.62596 86.1288 -19.4893 1.85817 -12.7969 8.18592 -80.9031 10.3148 -165.943 -9.03287 72.6244 -25.4562 -0.557676 -83.8034 -28.1263 -3.90788 16.9337 7.66559 87.326 -7.59051 -26.4258 -2.44888 -174.288 -16.4699 0.482393 -1.79547 -4.22642 -2.29325 -0.388525 90 -1.28465e-014 2.26615e-014 7.94516 0.087312 -171.676 -14.2881 -0.847876 0.318052 5.82193 0.774791 -0.82381 90 -3.57812e-015 -8.54774e-015 
58.7816 88.1547 -38.4202 149.686 87.7065 -62.6144 1.43721 1.85933 0.682861 2.85343 3.73581 1.33972 2.85343 3.73579 1.3397 -16.726 -4.18886 -13.6935 40.5146 -3.6402 17.5739 -166.286 -7.496 -95.5899 -15.161 9.02599 86.3604 -19.6419 1.87739 -12.8731 8.58184 -81.2951 10.7323 -165.934 -9.04867 72.5874 -25.8839 -0.286653 -83.5927 -27.8967 -3.84603 16.8109 8.10055 87.4417 -8.01004 -26.2195 -2.78133 -174.177 -16.1267 0.464932 -1.80367 -5.27925 -3.27044 -0.74569 90 -4.64659e-015 -6.55989e-015 8.7794 0.379657 -171.771 -13.8242 -0.850459 0.313811 5.11148 0.227612 -0.80247 90 -6.95746e-015 -1.35174e-014 
59.1342 88.1081 -36.4729 148.856 87.2606 -61.889 1.32544 1.91525 0.680928 2.6306 3.84603 1.31074 2.6306 3.84602 1.31072 -16.5783 -4.27899 -13.518 40.5931 -3.83526 17.4717 -166.442 -7.51123 -95.4185 -15.0769 9.26938 86.5173 -19.6067 1.87691 -12.8523 8.75557 -81.4992 10.9409 -166.069 -9.04167 72.7672 -25.4486 0.0989284 -83.7041 -27.4608 -3.74094 16.5882 6.28536 86.6523 -6.16664 -25.8254 -2.62614 -174.362 -16.6107 0.483145 -1.76751 -7.00162 -2.11058 -0.636284 90 -1.06476e-014 6.78974e-015 9.53596 0.0273414 -172.104 -14.0182 -0.850138 0.289461 4.71355 -0.636815 -0.840807 90 -1.14301e-014 -1.74931e-014 
59.5833 88.153 -34.3369 147.971 86.8343 -61.0137 1.22159 1.9356 0.665038 2.4227 3.8853 1.28987 2.42269 3.88528 1.28986 -16.708 -4.22321 -13.5824 40.806 -3.72288 17.492 -166.33 -7.5185 -95.4813 -14.7242 9.45766 86.8143 -19.7105 1.89642 -12.9111 8.28278 -81.1193 10.4716 -165.943 -9.01065 72.7111 -25.1331 0.0458693 -83.8793 -27.2047 -3.67328 16.4545 5.78582 86.3857 -5.6874 -24.9146 -2.64444 -174.8 -17.1454 0.531813 -1.73621 -7.12896 -0.909437 -0.32514 90 -8.32411e-016 1.39149e-015 10.069 0.525337 -172.57 -14.6352 -0.84606 0.270645 3.7213 -0.964662 -0.808287 90 4.96962e-017 9.74045e-015 
60.2381 88.4712 -32.0161 155.879 86.6952 -68.1446 1.10991 1.85995 0.509347 2.20504 3.72984 0.98344 2.20502 3.72984 0.983445 -16.7562 -4.19631 -13.6965 40.9657 -3.62395 17.5717 -166.295 -7.52778 -95.5645 -14.7702 9.40171 86.8493 -19.4409 1.85316 -12.7731 8.4557 -81.0989 10.5767 -165.923 -9.02044 72.6052 -24.3402 -0.141665 -84.2806 -26.9569 -3.61643 16.3336 5.96333 86.4372 -5.86469 -24.0278 -2.348 -176.168 -16.6039 0.571686 -1.72584 -8.95908 0.437008 -0.0638254 90 4.47266e-015 7.95139e-015 10.4113 1.01218 -173.704 -15.8335 -0.833809 0.253205 2.42538 -0.418606 -0.662399 90 -2.73329e-016 2.5345e-015 
60.9139 88.7429 -29.5135 165.709 86.736 -77.461 1.07101 1.77113 0.386335 2.13156 3.54961 0.740147 2.13154 3.54961 0.740139 -17.1321 -4.2046 -13.708 41.1716 -3.71583 17.6064 -165.918 -7.60938 -95.4933 -14.7992 9.11967 86.6299 -19.3673 1.84411 -12.7373 7.84266 -80.9195 10.0618 -165.563 -9.10824 72.6537 -23.0525 -0.290345 -84.8163 -26.6133 -3.54057 16.1542 4.9515 85.3226 -4.82311 -22.7896 -1.53441 -177.178 -16.3072 0.622419 -1.71047 -9.7846 2.04893 0.38301 90 2.03754e-015 7.95139e-015 10.0026 1.18281 -174.532 -18.8175 -0.813631 0.174517 0.373298 -0.958616 -0.61841 90 -3.74709e-014 -1.47101e-014 
